<?xml version="1.0" encoding="utf-8"?>
<!-- Generator: Adobe Illustrator 19.0.0, SVG Export Plug-In . SVG Version: 6.00 Build 0)  -->
<svg version="1.1" id="Layer_1" xmlns="http://www.w3.org/2000/svg" xmlns:xlink="http://www.w3.org/1999/xlink" x="0px" y="0px"
	 viewBox="0 0 20 35" style="enable-background:new 0 0 20 35;" xml:space="preserve">
<style type="text/css">
	.st0{fill:#E04C43;}
	.st1{fill:#FFFFFF;}
</style>
<path id="XMLID_3_" class="st0" d="M9.9,4.1C8.1,4.1,6.5,4.5,5,5.4C3.4,6.3,2.2,7.5,1.4,8.9c-0.9,1.5-1.3,3.2-1.3,4.9
	c0,1.5,0.4,3,1.1,4.4c0.7,1.4,1.8,2.6,3,3.7c0.1,0.1,0.2,0.1,0.4,0.3c0.2,0.2,0.4,0.3,0.5,0.4c0.1,0.1,0.3,0.2,0.5,0.5
	c0.2,0.2,0.4,0.4,0.6,0.6c0.2,0.2,0.3,0.3,0.6,0.6c0.2,0.2,0.4,0.5,0.6,0.7c1.5,1.9,2.3,6.5,2.7,7.5c0.3-1.1,1.2-5.6,2.7-7.5
	c0.2-0.2,0.3-0.5,0.6-0.7c0.2-0.2,0.4-0.4,0.6-0.6c0.2-0.2,0.3-0.3,0.6-0.6c0.2-0.2,0.4-0.3,0.5-0.5c0.1-0.1,0.3-0.2,0.5-0.4
	c0.2-0.2,0.3-0.3,0.4-0.3c1.2-1.1,2.2-2.3,3-3.6c0.7-1.4,1.1-2.8,1.1-4.4c0-1.8-0.5-3.4-1.3-4.9c-0.9-1.5-2.1-2.7-3.6-3.6
	C13.3,4.5,11.6,4.1,9.9,4.1z"/>
<g id="XMLID_1_">
	<g>
		<path id="XMLID_2_" class="st1" d="M13.9,9.9c1.1,1.1,1.6,2.4,1.6,4s-0.6,2.9-1.6,4c-1.1,1.1-2.4,1.6-4,1.6s-2.9-0.6-4-1.6
			c-1.1-1.1-1.6-2.4-1.6-4s0.6-2.9,1.6-4s2.4-1.6,4-1.6S12.8,8.8,13.9,9.9z"/>
	</g>
</g>
</svg>
